<svg width="54" height="45" viewBox="0 0 54 45" fill="none" xmlns="http://www.w3.org/2000/svg">
<path d="M0.0658072 12.249C0.790227 10.3394 1.90972 8.69308 3.95109 7.96868C4.14861 7.903 4.28045 7.57363 4.28045 7.30996C4.34614 6.9149 4.28045 6.45371 4.28045 6.05861C4.28045 4.01725 5.66362 2.63407 7.70498 2.56834H11.7878C13.8292 2.56834 15.2124 4.01713 15.2124 6.05861V7.5074C16.2661 7.83677 16.9905 7.57309 17.6488 6.65115C18.9002 4.93906 20.2172 3.29271 21.5341 1.64635C22.3904 0.461214 23.5099 0 24.9587 0C28.5808 0.0656884 32.2029 0.0656884 35.8244 0C37.3389 0 38.4583 0.526893 39.3146 1.71209C40.6316 3.49027 42.0148 5.20236 43.3975 6.91434C43.6607 7.2437 44.2537 7.50692 44.7144 7.57307C45.8996 7.63875 47.0196 7.57307 48.2047 7.57307C51.4317 7.57307 54 10.207 54 13.4341V38.8538C54 42.1465 51.4317 44.7148 48.0734 44.7148H5.92669C3.42411 44.7148 1.31701 43.266 0.395054 40.8953C0.263217 40.6321 0.131838 40.3684 0 40.039C0.0656884 30.8197 0.0656879 21.534 0.0656879 12.2486L0.0658072 12.249ZM27.066 41.3565H47.7442C49.6538 41.3565 50.7076 40.3689 50.7076 38.4588V13.8952C50.7076 11.9857 49.7199 10.9975 47.7442 10.9975C46.2297 10.9975 44.6491 11.0632 43.1346 10.9318C42.6734 10.9318 42.0808 10.6025 41.7514 10.2731C40.105 8.23173 38.5244 6.12416 36.8781 4.08268C36.6148 3.75331 36.0218 3.42395 35.5611 3.42395C32.2026 3.35826 28.8438 3.35826 25.4198 3.42395C24.9586 3.42395 24.366 3.75331 24.0366 4.08268C22.3903 6.12404 20.8096 8.23161 19.0975 10.2731C18.7682 10.6681 18.1756 10.9318 17.7144 10.9318C14.0267 10.9975 10.3388 10.9318 6.65111 10.9318C4.28036 10.9318 3.3584 11.8538 3.3584 14.1588V38.0639C3.3584 40.369 4.28033 41.2908 6.51928 41.2908C13.4341 41.3561 20.2828 41.3561 27.0658 41.3561L27.066 41.3565ZM11.8537 6.05868H7.70477V7.57321H11.8537V6.05868Z" fill="#C4C4C4"/>
<path d="M16.9238 25.2881C16.9238 17.7808 22.9824 11.8539 30.4898 11.8539C37.9314 11.8539 43.924 17.9125 43.924 25.4198C43.924 32.9272 37.8655 38.8541 30.2922 38.8541C22.9162 38.8541 16.9238 32.7955 16.9238 25.2881ZM30.4898 35.4957C36.0214 35.4957 40.6311 30.886 40.5655 25.2881C40.5655 19.7565 35.9558 15.2124 30.358 15.2124C24.8921 15.2124 20.2823 19.8221 20.2823 25.3538C20.2823 30.8854 24.9577 35.4955 30.4898 35.4955V35.4957Z" fill="#C4C4C4"/>
</svg>
